<?xml version="1.0" encoding="UTF-8"?>
<svg xmlns="http://www.w3.org/2000/svg" width="295" height="213" viewBox="0 0 295 213" fill="none">
  <g clip-path="url(#clip0_678_154757)">
    <path d="M125.18 154.136C125.18 154.175 125.183 154.214 125.183 154.253C123.324 194.074 67.3075 185.712 52.3031 212.784V168.299C52.3031 148.765 63.7772 139.135 77.6119 131.128C80.1514 131.695 82.6432 132.283 84.9709 132.987C86.6689 133.501 88.3132 134.038 89.8978 134.599C77.5373 141.71 65.6423 146.172 65.6423 162.322V188.198C71.363 184.262 77.7432 181.388 83.7175 178.699C100.671 171.081 111.109 165.491 111.843 147.768C111.828 142.656 109.772 139.081 107.096 136.616L107.102 136.619L107.066 136.589C105.568 135.217 103.876 134.19 102.237 133.435C97.6924 131.054 91.5898 128.92 85.1589 126.971L85.1708 126.965L84.9798 126.918L84.9709 126.915C81.4585 125.855 77.5701 125.053 73.7056 124.199C39.2353 115.93 0.142578 105.375 0.142578 60.1376V0.00341797C27.9372 32.4743 123.822 8.47551 125.201 78.1412H125.204C125.204 78.1889 125.201 78.2337 125.198 78.2815C125.198 78.6037 125.192 78.9201 125.189 79.2394V154.271C125.186 154.226 125.183 154.181 125.18 154.136Z" fill="#40BE46"></path>
    <path fill-rule="evenodd" clip-rule="evenodd" d="M0.142578 -0.000488281C27.9342 32.4704 123.81 8.4716 125.189 78.1373C125.189 114.234 102.279 125.272 85.1798 126.961C48.5997 117.872 0.142578 110.498 0.142578 60.1337V0.0024959V-0.000488281Z" fill="url(#paint0_linear_678_154757)"></path>
    <path fill-rule="evenodd" clip-rule="evenodd" d="M52.2969 212.781C67.3013 185.711 123.317 194.073 125.174 154.252C125.174 127.75 101.47 124.136 85.1796 126.947C68.2294 136.01 52.2969 145.273 52.2969 168.296V212.778V212.781Z" fill="url(#paint1_linear_678_154757)"></path>
    <path fill-rule="evenodd" clip-rule="evenodd" d="M125.173 154.265V78.1382C124.483 106.873 104.179 116.801 85.1758 126.962C106.859 132.352 124.376 138.356 125.173 154.265Z" fill="url(#paint2_linear_678_154757)"></path>
    <path d="M188.506 106.348V115.793H149.404V106.348H188.506ZM161.117 178.885V96.3361C161.117 92.1822 162.093 88.7175 164.045 85.9452C165.996 83.1759 168.53 81.0959 171.648 79.7113C174.764 78.3266 178.055 77.6343 181.517 77.6343C184.257 77.6343 186.492 77.8551 188.223 78.2968C189.953 78.7384 191.245 79.1473 192.096 79.5233L188.885 89.1562C188.318 88.9682 187.533 88.7295 186.525 88.449C185.549 88.1655 184.257 88.0252 182.651 88.0252C178.969 88.0252 176.307 88.9533 174.671 90.8124C173.066 92.6686 172.263 95.3931 172.263 98.9801V178.885H161.117ZM215.271 82.1702V178.885H204.125V82.1702H215.271ZM242.863 206.088C240.974 206.088 239.288 205.93 237.811 205.617C236.33 205.333 235.307 205.05 234.74 204.766L237.572 194.942C240.279 195.635 242.672 195.885 244.749 195.697C246.826 195.509 248.667 194.578 250.276 192.91C251.914 191.272 253.409 188.613 254.761 184.93L256.838 179.264L230.016 106.348H242.105L262.129 164.152H262.884L282.908 106.348H294.996L264.206 189.463C262.821 193.212 261.105 196.312 259.058 198.768C257.011 201.254 254.635 203.098 251.929 204.295C249.252 205.491 246.232 206.088 242.86 206.088H242.863Z" fill="white"></path>
    <path d="M148.959 73.0108C148.225 73.0108 147.583 72.963 147.037 72.8705C146.476 72.7899 145.996 72.6765 145.596 72.5303V68.5047C146.022 68.6121 146.485 68.7046 146.977 68.7852C147.473 68.8657 147.998 68.9045 148.559 68.9045C149.293 68.9045 149.962 68.7643 150.561 68.4838C151.161 68.2033 151.636 67.6959 151.985 66.9618C152.346 66.2277 152.525 65.1922 152.525 63.8583V35.5772H157.332V63.7001C157.332 65.8756 156.983 67.6452 156.291 69.009C155.596 70.3847 154.623 71.3933 153.367 72.0349C152.113 72.6885 150.642 73.0167 148.959 73.0167V73.0108ZM169.669 64.858H164.903V35.5742H181.448V39.6208H169.669V48.7553H180.687V52.781H169.669V64.858ZM197.529 42.2648C197.902 42.2648 198.311 42.2856 198.75 42.3244C199.192 42.3632 199.571 42.4169 199.893 42.4856L199.451 46.8932C199.171 46.8126 198.825 46.753 198.41 46.7142C198.01 46.6754 197.649 46.6545 197.329 46.6545C196.488 46.6545 195.688 46.7947 194.927 47.0753C194.166 47.3408 193.492 47.7556 192.904 48.3167C192.316 48.8658 191.856 49.5521 191.522 50.3787C191.188 51.2054 191.021 52.1692 191.021 53.2644V64.861H186.294V42.6885H189.979L190.621 46.5948H190.842C191.284 45.807 191.83 45.0848 192.483 44.4313C193.137 43.7777 193.886 43.2555 194.727 42.8676C195.581 42.4677 196.518 42.2677 197.532 42.2677L197.529 42.2648ZM223.629 53.721C223.629 55.5623 223.387 57.2006 222.91 58.627C222.429 60.0564 221.728 61.265 220.806 62.2528C219.884 63.2286 218.777 63.9747 217.482 64.4969C216.186 65.0042 214.724 65.2579 213.095 65.2579C211.573 65.2579 210.179 65.0042 208.911 64.4969C207.643 63.9776 206.539 63.2286 205.605 62.2528C204.682 61.265 203.969 60.0564 203.462 58.627C202.955 57.1976 202.701 55.5623 202.701 53.721C202.701 51.277 203.122 49.2089 203.963 47.5109C204.817 45.801 206.031 44.4999 207.607 43.6046C209.183 42.7094 211.06 42.2618 213.235 42.2618C215.279 42.2618 217.082 42.7094 218.642 43.6046C220.203 44.4999 221.427 45.801 222.307 47.5109C223.187 49.2209 223.629 51.2889 223.629 53.721ZM207.544 53.721C207.544 55.3355 207.738 56.7171 208.126 57.866C208.526 59.015 209.141 59.8953 209.97 60.51C210.797 61.1099 211.865 61.4113 213.175 61.4113C214.483 61.4113 215.551 61.1099 216.38 60.51C217.207 59.8953 217.816 59.015 218.204 57.866C218.592 56.7171 218.786 55.3355 218.786 53.721C218.786 52.1066 218.592 50.7368 218.204 49.6148C217.816 48.4808 217.21 47.6184 216.38 47.0305C215.554 46.4307 214.477 46.1293 213.155 46.1293C211.206 46.1293 209.782 46.7828 208.887 48.0929C207.992 49.3999 207.544 51.277 207.544 53.721ZM235.366 74.7117C232.361 74.7117 230.057 74.1716 228.457 73.0884C226.855 72.0081 226.055 70.4921 226.055 68.5405C226.055 67.1797 226.482 66.0218 227.338 65.0758C228.192 64.1418 229.415 63.4942 231.003 63.1331C230.4 62.8675 229.881 62.4527 229.439 61.8917C229.012 61.3187 228.798 60.6831 228.798 59.9878C228.798 59.1612 229.03 58.4509 229.499 57.866C229.964 57.2782 230.666 56.7112 231.603 56.1651C230.442 55.6697 229.505 54.8699 228.798 53.7628C228.102 52.6407 227.756 51.3247 227.756 49.8177C227.756 48.2152 228.096 46.8544 228.777 45.7324C229.457 44.5984 230.454 43.736 231.761 43.1481C233.068 42.5482 234.653 42.2468 236.509 42.2468C236.909 42.2468 237.344 42.2737 237.81 42.3274C238.29 42.3662 238.732 42.4199 239.132 42.4886C239.547 42.5423 239.86 42.602 240.075 42.6676H247.747V45.2907L243.981 45.992C244.342 46.4993 244.629 47.0812 244.844 47.7348C245.055 48.3764 245.163 49.0776 245.163 49.8386C245.163 52.1364 244.369 53.9448 242.779 55.2668C241.203 56.5769 239.027 57.2304 236.249 57.2304C235.581 57.2036 234.933 57.1498 234.306 57.0693C233.826 57.3617 233.459 57.69 233.205 58.0511C232.952 58.3972 232.823 58.7911 232.823 59.2328C232.823 59.5939 232.952 59.8863 233.205 60.1131C233.459 60.328 233.832 60.4862 234.327 60.5936C234.835 60.701 235.449 60.7547 236.169 60.7547H239.994C242.423 60.7547 244.28 61.268 245.563 62.2976C246.846 63.3271 247.488 64.8341 247.488 66.8246C247.488 69.3492 246.446 71.2919 244.363 72.6527C242.28 74.0284 239.284 74.7147 235.369 74.7147L235.366 74.7117ZM235.545 71.4053C237.186 71.4053 238.571 71.2441 239.69 70.9248C240.812 70.6055 241.659 70.143 242.232 69.5431C242.805 68.9553 243.095 68.254 243.095 67.4393C243.095 66.7171 242.916 66.1651 242.555 65.7771C242.194 65.3892 241.653 65.1236 240.931 64.9744C240.209 64.8281 239.314 64.7535 238.246 64.7535H234.76C233.892 64.7535 233.125 64.8878 232.456 65.1534C231.788 65.4339 231.269 65.8338 230.893 66.356C230.531 66.8783 230.352 67.5049 230.352 68.2391C230.352 69.2537 230.8 70.0355 231.695 70.5816C232.602 71.1307 233.886 71.4023 235.542 71.4023L235.545 71.4053ZM236.467 54.1388C237.843 54.1388 238.863 53.7658 239.532 53.0168C240.2 52.2558 240.531 51.1875 240.531 49.8117C240.531 48.3167 240.185 47.1946 239.49 46.4456C238.81 45.6966 237.795 45.3235 236.446 45.3235C235.124 45.3235 234.115 45.7055 233.423 46.4665C232.743 47.2274 232.403 48.3555 232.403 49.8505C232.403 51.1994 232.743 52.2528 233.423 53.0138C234.118 53.7628 235.133 54.1358 236.467 54.1358V54.1388Z" fill="#46AD43"></path>
  </g>
  <defs>
    <linearGradient id="paint0_linear_678_154757" x1="125.189" y1="62.6554" x2="-0.612421" y2="62.6554" gradientUnits="userSpaceOnUse">
      <stop stop-color="#55D551"></stop>
      <stop offset="1" stop-color="#00A020"></stop>
    </linearGradient>
    <linearGradient id="paint1_linear_678_154757" x1="123.917" y1="170.388" x2="51.4882" y2="170.388" gradientUnits="userSpaceOnUse">
      <stop stop-color="#2D3492"></stop>
      <stop offset="1" stop-color="#0089D8"></stop>
    </linearGradient>
    <linearGradient id="paint2_linear_678_154757" x1="141.708" y1="125.449" x2="94.6923" y2="98.2396" gradientUnits="userSpaceOnUse">
      <stop stop-color="#00CF87"></stop>
      <stop offset="1" stop-color="#219DE0"></stop>
    </linearGradient>
    <clipPath id="clip0_678_154757">
      <rect width="294.857" height="212.784" fill="white" transform="translate(0.142578)"></rect>
    </clipPath>
  </defs>
</svg>
